<?xml version="1.0" encoding="utf-8"?>
<svg version="1.1" xmlns="http://www.w3.org/2000/svg" x="0px" y="0px"
	 width="200px" height="150px" viewBox="0 0 200 150">
<path fill-rule="evenodd" clip-rule="evenodd" fill="#2B343D" d="M154.927,30.229c-11.181-6.592-21.494-9.814-23.036-7.198
	c-1.543,2.617,6.27,10.082,17.449,16.674c11.18,6.592,21.494,9.814,23.037,7.197S166.107,36.82,154.927,30.229z M155.84,37.539
	c-0.498,0.846-2.926,0.336-5.424-1.137c-2.498-1.472-4.119-3.351-3.621-4.196c0.499-0.845,2.928-0.336,5.425,1.137
	C154.718,34.816,156.339,36.694,155.84,37.539z"/>
<path opacity="0.19" fill-rule="evenodd" clip-rule="evenodd" fill="#535862" d="M154.778,35.277l-45,88.695
	c0,0-19.549,6.801-42.391,7.275c-24,0.5-42.609-0.275-42.609-0.275L149.52,32.108l2.7,1.235L154.778,35.277z"/>
<path fill-rule="evenodd" clip-rule="evenodd" fill="#3E464F" d="M155.927,30.229c3.853,2.271,7.29,4.643,10.098,6.888
	c2.254-5.437,0.232-11.841-4.983-14.916c-5.188-3.058-11.725-1.758-15.403,2.785C148.802,26.33,152.316,28.1,155.927,30.229z"/>
<path fill-rule="evenodd" clip-rule="evenodd" fill="#4F575F" d="M161.041,22.202c-5.188-3.058-11.725-1.758-15.403,2.785
	c0.188,0.08,0.389,0.175,0.579,0.258c3.258-3.335,8.475-4.161,12.671-1.688c4.134,2.437,5.937,7.291,4.707,11.704
	c0.853,0.625,1.666,1.245,2.43,1.855C168.278,31.68,166.257,25.276,161.041,22.202z"/>
</svg>
