<?xml version="1.0" encoding="UTF-8"?>
<svg width="543px" height="541px" viewBox="0 0 543 541" version="1.1" xmlns="http://www.w3.org/2000/svg" xmlns:xlink="http://www.w3.org/1999/xlink">
    <title>Group</title>
    <g id="Logo" stroke="none" stroke-width="1" fill="none" fill-rule="evenodd">
        <g id="Group-3" transform="translate(0.000000, -66.177770)">
            <rect id="Rectangle" fill="#0A0018" x="1" y="66.1777696" width="541" height="541" rx="15"></rect>
            <g id="Group" transform="translate(17.000000, 0.000000)" fill="#51FFAA">
                <path d="M324.117698,102.01303 L452.871579,490.292842 C456.522012,501.30136 450.557106,513.184788 439.548588,516.835221 C437.416614,517.542185 435.185027,517.902536 432.938894,517.902536 L175.431131,517.902536 C163.833151,517.902536 154.431131,508.500516 154.431131,496.902536 C154.431131,494.656403 154.791482,492.424816 155.498446,490.292842 L284.252327,102.01303 C287.90276,91.0045113 299.786188,85.0396047 310.794706,88.6900377 C317.090556,90.7777462 322.02999,95.7171802 324.117698,102.01303 Z" id="Rectangle" transform="translate(304.185013, 279.902536) rotate(45.000000) translate(-304.185013, -279.902536) "></path>
            </g>
        </g>
    </g>
</svg>