<?xml version="1.0" encoding="utf-8"?>
<svg version="1.1" xmlns="http://www.w3.org/2000/svg" x="0px" y="0px" width="120px" height="70px" viewBox="0 0 120 70" fill-rule="evenodd" clip-rule="evenodd" fill="#3E464F">
<g>
    <rect x="51.005" y="23.203" transform="matrix(-0.9514 0.3079 -0.3079 -0.9514 123.5543 37.9294)" width="15.558" height="11.021"/>

    <rect x="48.901" y="26.297" transform="matrix(0.9514 -0.3079 0.3079 0.9514 -7.4016 16.6992)" width="0.649" height="11.021"/>

    <rect x="49.826" y="25.998" transform="matrix(-0.9515 0.3076 -0.3076 -0.9515 107.5611 46.0616)" width="0.648" height="11.021"/>
</g>
<g>
    <rect x="55.016" y="35.449" transform="matrix(-0.9514 0.3079 -0.3079 -0.9514 135.1519 60.5914)" width="15.558" height="11.021"/>

    <rect x="52.911" y="38.544" transform="matrix(0.9517 -0.3072 0.3072 0.9517 -10.9587 18.4828)" width="0.649" height="11.021"/>

    <rect x="53.837" y="38.244" transform="matrix(-0.9515 0.3076 -0.3076 -0.9515 119.1552 68.7262)" width="0.648" height="11.021"/>
</g>
<path fill="none" d="M46.811,26.851l17.269-5.59l3.395,10.486l-17.27,5.59L46.811,26.851z"
  />
<path fill="none" d="M47.229,26.034l0.308-0.1l3.793,11.718l-0.308,0.1L47.229,26.034z"/>
<path fill="none" d="M48.153,25.734l0.925-0.299l3.894,12.027l-0.926,0.3L48.153,25.734z"
  />
<path fill="none" d="M46.811,26.851l17.269-5.59l3.395,10.486l-17.27,5.59L46.811,26.851z"
  />
<path fill="none" d="M47.229,26.034l0.308-0.1l3.793,11.718l-0.308,0.1L47.229,26.034z"/>
<path fill="none" d="M48.153,25.734l0.925-0.299l3.894,12.027l-0.926,0.3L48.153,25.734z"
  />
<g>

    <rect x="59.52" y="46.049" transform="matrix(-0.9514 0.308 -0.308 -0.9514 142.2933 75.1484)" width="11.392" height="5.51"/>

    <rect x="58.658" y="48.095" transform="matrix(-0.9517 0.3069 -0.3069 -0.9517 130.5542 81.1683)" width="0.474" height="5.51"/>

    <rect x="57.98" y="48.314" transform="matrix(0.9511 -0.3088 0.3088 0.9511 -12.9252 20.4738)" width="0.474" height="5.51"/>
</g>
<g>

    <rect x="61.431" y="52.921" transform="matrix(-0.9514 0.308 -0.308 -0.9514 136.8749 86.5037)" width="0.358" height="2.269"/>

    <rect x="62.084" y="51.374" transform="matrix(-0.9514 0.308 -0.308 -0.9514 145.7247 82.0163)" width="8.612" height="2.268"/>

    <rect x="60.919" y="53.087" transform="matrix(0.9514 -0.308 0.308 0.9514 -13.7313 21.457)" width="0.358" height="2.268"/>
</g>
<path d="M45.641,37.385l4.625-1.496l0.399,1.232l-4.626,1.498
  L45.641,37.385z"/>
<path d="M47.743,43.447l4.625-1.496l0.399,1.232l-4.626,1.498
  L47.743,43.447z"/>
<path d="M67.327,30.363l4.625-1.496l0.4,1.232l-4.627,1.498L67.327,30.363z
  "/>
<path d="M69.43,36.402l4.625-1.496l0.398,1.232l-4.625,1.498L69.43,36.402z
  "/>
<path d="M65.138,9.583c1.599,4.939-2.629,10.73-9.441,12.935
  c-6.812,2.206-13.63-0.01-15.229-4.949"/>
<g>

    <rect x="36.634" y="46.772" transform="matrix(0.9514 -0.308 0.308 0.9514 -13.0417 13.826)" width="1.297" height="2.917"/>

    <rect x="38.176" y="46.273" transform="matrix(0.9514 -0.3081 0.3081 0.9514 -12.8169 14.2825)" width="1.296" height="2.917"/>

    <rect x="32.008" y="48.27" transform="matrix(0.9514 -0.3081 0.3081 0.9514 -13.7322 12.4796)" width="1.296" height="2.917"/>

    <rect x="12.695" y="55.069" transform="matrix(0.308 0.9514 -0.9514 0.308 62.8034 25.0921)" width="2.917" height="1.296"/>

    <rect x="35.092" y="47.271" transform="matrix(0.9514 -0.3081 0.3081 0.9514 -13.2744 13.3811)" width="1.296" height="2.917"/>

    <rect x="33.55" y="47.771" transform="matrix(0.9516 -0.3073 0.3073 0.9516 -13.473 12.8906)" width="1.297" height="2.917"/>

    <rect x="45.885" y="43.778" transform="matrix(0.9514 -0.308 0.308 0.9514 -11.6699 16.5296)" width="1.297" height="2.917"/>

    <rect x="44.343" y="44.277" transform="matrix(0.9514 -0.3081 0.3081 0.9514 -11.902 16.0854)" width="1.296" height="2.917"/>

    <rect x="41.259" y="45.275" transform="matrix(0.9514 -0.3081 0.3081 0.9514 -12.3594 15.1841)" width="1.296" height="2.917"/>

    <rect x="42.801" y="44.776" transform="matrix(0.9514 -0.308 0.308 0.9514 -12.1272 15.6284)" width="1.297" height="2.917"/>

    <rect x="44.077" y="41.504" transform="matrix(-0.3078 -0.9514 0.9514 -0.3078 19.4462 98.4527)" width="2.917" height="1.297"/>

    <rect x="18.131" y="52.762" transform="matrix(0.9514 -0.3081 0.3081 0.9514 -15.7908 8.4227)" width="1.296" height="2.917"/>

    <rect x="21.215" y="51.764" transform="matrix(0.9514 -0.3081 0.3081 0.9514 -15.3333 9.3242)" width="1.296" height="2.917"/>

    <rect x="30.466" y="48.769" transform="matrix(0.9514 -0.3081 0.3081 0.9514 -13.9609 12.0288)" width="1.296" height="2.917"/>

    <rect x="16.589" y="53.261" transform="matrix(0.9514 -0.3081 0.3081 0.9514 -16.0195 7.972)" width="1.296" height="2.917"/>

    <rect x="15.047" y="53.76" transform="matrix(0.9514 -0.3081 0.3081 0.9514 -16.2483 7.5212)" width="1.296" height="2.917"/>

    <rect x="19.673" y="52.263" transform="matrix(0.9514 -0.308 0.308 0.9514 -15.5569 8.8694)" width="1.297" height="2.917"/>

    <rect x="27.383" y="49.767" transform="matrix(0.9513 -0.3082 0.3082 0.9513 -14.423 11.1322)" width="1.296" height="2.917"/>

    <rect x="28.924" y="49.268" transform="matrix(0.9514 -0.3081 0.3081 0.9514 -14.1896 11.578)" width="1.296" height="2.917"/>

    <rect x="22.757" y="51.265" transform="matrix(0.9514 -0.3081 0.3081 0.9514 -15.1046 9.775)" width="1.296" height="2.917"/>

    <rect x="25.84" y="50.267" transform="matrix(0.9514 -0.308 0.308 0.9514 -14.6424 10.6717)" width="1.297" height="2.917"/>

    <rect x="24.299" y="50.766" transform="matrix(0.9514 -0.3081 0.3081 0.9514 -14.8759 10.2258)" width="1.296" height="2.917"/>

    <rect x="39.718" y="45.774" transform="matrix(0.9514 -0.308 0.308 0.9514 -12.5844 14.7272)" width="1.297" height="2.917"/>

    <rect x="27.471" y="39.517" transform="matrix(-0.9514 0.3081 -0.3081 -0.9514 67.4955 71.296)" width="1.296" height="2.917"/>

    <rect x="22.846" y="41.015" transform="matrix(-0.9516 0.3074 -0.3074 -0.9516 58.9061 75.6688)" width="1.296" height="2.917"/>

    <rect x="19.762" y="42.014" transform="matrix(-0.9514 0.3081 -0.3081 -0.9514 53.2205 78.5419)" width="1.296" height="2.917"/>

    <rect x="24.388" y="40.516" transform="matrix(-0.9513 0.3082 -0.3082 -0.9513 61.7897 74.1892)" width="1.296" height="2.917"/>

    <rect x="25.929" y="40.017" transform="matrix(-0.9514 0.3081 -0.3081 -0.9514 64.6402 72.7448)" width="1.296" height="2.917"/>

    <rect x="21.304" y="41.514" transform="matrix(-0.9514 0.308 -0.308 -0.9514 56.0716 77.096)" width="1.297" height="2.918"/>

    <rect x="18.22" y="42.513" transform="matrix(-0.9514 0.3081 -0.3081 -0.9514 50.3653 79.9907)" width="1.296" height="2.917"/>

    <rect x="12.052" y="44.509" transform="matrix(-0.9514 0.3081 -0.3081 -0.9514 38.9453 85.7859)" width="1.296" height="2.917"/>

    <rect x="13.594" y="44.01" transform="matrix(-0.9514 0.3081 -0.3081 -0.9514 41.8005 84.3371)" width="1.296" height="2.917"/>

    <rect x="43.078" y="38.42" transform="matrix(-0.308 -0.9514 0.9514 -0.308 21.0836 93.4733)" width="2.917" height="1.297"/>

    <rect x="15.136" y="43.511" transform="matrix(-0.9514 0.3081 -0.3081 -0.9514 44.6557 82.8882)" width="1.296" height="2.917"/>

    <rect x="16.678" y="43.012" transform="matrix(-0.9514 0.308 -0.308 -0.9514 47.5062 81.443)" width="1.297" height="2.917"/>

    <rect x="39.807" y="35.525" transform="matrix(-0.9516 0.3074 -0.3074 -0.9516 90.3191 59.7404)" width="1.296" height="2.917"/>

    <rect x="10.511" y="45.008" transform="matrix(-0.9514 0.3081 -0.3081 -0.9514 36.0905 87.2346)" width="1.296" height="2.917"/>

    <rect x="29.013" y="39.018" transform="matrix(-0.9514 0.3081 -0.3081 -0.9514 70.3507 69.8471)" width="1.296" height="2.917"/>

    <rect x="36.723" y="36.523" transform="matrix(-0.9514 0.308 -0.308 -0.9514 84.6236 62.6085)" width="1.297" height="2.917"/>

    <rect x="40.538" y="35.835" transform="matrix(-0.3078 -0.9514 0.9514 -0.3078 20.2121 87.672)" width="2.917" height="1.297"/>

    <rect x="42.347" y="38.109" transform="matrix(-0.9514 0.3081 -0.3081 -0.9514 96.0886 63.9653)" width="1.296" height="2.917"/>

    <rect x="32.097" y="38.02" transform="matrix(-0.9514 0.3081 -0.3081 -0.9514 76.0612 66.9494)" width="1.296" height="2.917"/>

    <rect x="30.555" y="38.519" transform="matrix(-0.9514 0.308 -0.308 -0.9514 73.2022 68.4032)" width="1.297" height="2.917"/>

    <rect x="35.18" y="37.022" transform="matrix(-0.9514 0.3081 -0.3081 -0.9514 81.7698 64.0521)" width="1.296" height="2.917"/>

    <rect x="33.639" y="37.521" transform="matrix(-0.9514 0.308 -0.308 -0.9514 78.9129 65.5059)" width="1.297" height="2.917"/>

    <rect x="38.264" y="36.024" transform="matrix(-0.9514 0.308 -0.308 -0.9514 87.478 61.16)" width="1.297" height="2.917"/>

    <rect x="27.926" y="46.184" transform="matrix(0.9514 -0.3081 0.3081 0.9514 -13.2881 11.1205)" width="1.296" height="2.917"/>

    <rect x="29.468" y="45.686" transform="matrix(0.9514 -0.3081 0.3081 0.9514 -13.0593 11.5712)" width="1.296" height="2.917"/>

    <rect x="40.261" y="42.191" transform="matrix(0.9514 -0.308 0.308 0.9514 -11.4545 14.7205)" width="1.297" height="2.917"/>

    <rect x="31.01" y="45.187" transform="matrix(0.9514 -0.3081 0.3081 0.9514 -12.8306 12.022)" width="1.296" height="2.917"/>

    <rect x="26.384" y="46.684" transform="matrix(0.9513 -0.3082 0.3082 0.9513 -13.5212 10.6744)" width="1.296" height="2.917"/>

    <rect x="23.3" y="47.682" transform="matrix(0.9512 -0.3087 0.3087 0.9512 -13.9979 9.791)" width="1.297" height="2.916"/>

    <rect x="38.719" y="42.69" transform="matrix(0.9514 -0.308 0.308 0.9514 -11.6831 14.2699)" width="1.297" height="2.917"/>

    <rect x="12.507" y="51.176" transform="matrix(0.9514 -0.3081 0.3081 0.9514 -15.5756 6.613)" width="1.296" height="2.916"/>

    <rect x="34.094" y="44.188" transform="matrix(0.9514 -0.3081 0.3081 0.9514 -12.373 12.9236)" width="1.296" height="2.916"/>

    <rect x="35.635" y="43.689" transform="matrix(0.9514 -0.308 0.308 0.9514 -12.1405 13.3687)" width="1.297" height="2.916"/>

    <rect x="32.551" y="44.687" transform="matrix(0.9514 -0.308 0.308 0.9514 -12.598 12.4674)" width="1.297" height="2.917"/>

    <rect x="24.842" y="47.183" transform="matrix(0.9516 -0.3074 0.3074 0.9516 -13.7182 10.1909)" width="1.296" height="2.917"/>

    <rect x="43.344" y="41.193" transform="matrix(0.9514 -0.308 0.308 0.9514 -10.9973 15.6216)" width="1.297" height="2.917"/>

    <rect x="41.803" y="41.692" transform="matrix(-0.9514 0.3081 -0.3081 -0.9514 96.1315 71.1245)" width="1.296" height="2.917"/>

    <rect x="6.135" y="45.169" transform="matrix(0.9515 -0.3076 0.3076 0.9515 -13.7391 4.1509)" width="0.324" height="0.973"/>

    <rect x="49.09" y="49.601" transform="matrix(-0.9515 0.3076 -0.3076 -0.9515 111.7897 82.23)" width="0.648" height="0.649"/>

    <rect x="15.591" y="50.178" transform="matrix(0.9514 -0.3081 0.3081 0.9514 -15.1181 7.5145)" width="1.296" height="2.916"/>

    <rect x="14.049" y="50.677" transform="matrix(-0.9514 0.308 -0.308 -0.9514 44.7357 97.2093)" width="1.297" height="2.916"/>

    <rect x="18.675" y="49.18" transform="matrix(0.9514 -0.3081 0.3081 0.9514 -14.6606 8.4161)" width="1.296" height="2.916"/>

    <rect x="20.217" y="48.681" transform="matrix(0.9514 -0.3081 0.3081 0.9514 -14.4319 8.8668)" width="1.296" height="2.916"/>

    <rect x="17.133" y="49.679" transform="matrix(0.9514 -0.3081 0.3081 0.9514 -14.8894 7.9653)" width="1.296" height="2.916"/>

    <rect x="21.758" y="48.182" transform="matrix(0.9514 -0.3081 0.3081 0.9514 -14.2032 9.3175)" width="1.296" height="2.916"/>

    <rect x="37.177" y="43.19" transform="matrix(0.9514 -0.3081 0.3081 0.9514 -11.9155 13.8249)" width="1.296" height="2.916"/>

    <rect x="19.218" y="45.597" transform="matrix(-0.9514 0.308 -0.308 -0.9514 53.2589 85.705)" width="1.297" height="2.917"/>

    <rect x="16.135" y="46.595" transform="matrix(-0.9514 0.3081 -0.3081 -0.9514 47.5539 88.5986)" width="1.296" height="2.917"/>

    <rect x="17.677" y="46.096" transform="matrix(-0.9514 0.3081 -0.3081 -0.9514 50.4091 87.1498)" width="1.296" height="2.917"/>

    <rect x="23.844" y="44.099" transform="matrix(-0.9516 0.3074 -0.3074 -0.9516 61.8028 81.3805)" width="1.296" height="2.917"/>

    <rect x="22.302" y="44.599" transform="matrix(-0.9512 0.3087 -0.3087 -0.9512 58.9959 82.7818)" width="1.297" height="2.916"/>

    <rect x="20.76" y="45.098" transform="matrix(-0.9514 0.3081 -0.3081 -0.9514 56.1187 84.2523)" width="1.296" height="2.917"/>

    <rect x="10.155" y="52.485" transform="matrix(0.3078 0.9514 -0.9514 0.3078 58.5916 25.728)" width="2.917" height="1.297"/>

    <rect x="9.967" y="48.591" transform="matrix(-0.9514 0.3081 -0.3081 -0.9514 36.1334 94.3939)" width="1.296" height="2.917"/>

    <rect x="11.509" y="48.092" transform="matrix(-0.9514 0.3081 -0.3081 -0.9514 38.9886 92.9451)" width="1.296" height="2.917"/>

    <rect x="14.593" y="47.094" transform="matrix(-0.9514 0.3081 -0.3081 -0.9514 44.6986 90.0475)" width="1.296" height="2.917"/>

    <rect x="13.051" y="47.593" transform="matrix(-0.9514 0.308 -0.308 -0.9514 41.8385 91.4996)" width="1.297" height="2.917"/>

    <rect x="36.179" y="40.106" transform="matrix(-0.9514 0.3081 -0.3081 -0.9514 84.6684 69.7624)" width="1.296" height="2.917"/>

    <rect x="39.995" y="39.419" transform="matrix(-0.308 -0.9514 0.9514 -0.308 16.1005 91.8449)" width="2.917" height="1.296"/>

    <rect x="34.637" y="40.605" transform="matrix(-0.9514 0.308 -0.308 -0.9514 81.8102 71.2166)" width="1.297" height="2.917"/>

    <rect x="39.263" y="39.107" transform="matrix(-0.9514 0.3081 -0.3081 -0.9514 90.3786 66.8629)" width="1.296" height="2.917"/>

    <rect x="25.386" y="43.6" transform="matrix(-0.9514 0.3081 -0.3081 -0.9514 64.6836 79.904)" width="1.296" height="2.917"/>

    <rect x="33.096" y="41.104" transform="matrix(-0.9514 0.3081 -0.3081 -0.9514 78.9593 72.6599)" width="1.296" height="2.917"/>

    <rect x="37.721" y="39.607" transform="matrix(-0.9516 0.3073 -0.3073 -0.9516 87.5013 68.3535)" width="1.297" height="2.917"/>

    <rect x="28.47" y="42.602" transform="matrix(-0.9514 0.3081 -0.3081 -0.9514 70.3936 77.0064)" width="1.296" height="2.917"/>

    <rect x="26.927" y="43.1" transform="matrix(-0.9514 0.308 -0.308 -0.9514 67.5344 78.4598)" width="1.297" height="2.917"/>

    <rect x="31.553" y="41.603" transform="matrix(-0.9514 0.308 -0.308 -0.9514 76.1 74.1139)" width="1.297" height="2.917"/>

    <rect x="30.012" y="42.103" transform="matrix(-0.9514 0.3081 -0.3081 -0.9514 73.2489 75.5575)" width="1.296" height="2.917"/>

    <rect x="11.42" y="58.341" transform="matrix(0.9514 -0.308 0.308 0.9514 -17.8299 6.6231)" width="1.297" height="2.917"/>

    <rect x="9.812" y="43.822" transform="matrix(-0.9514 0.3081 -0.3081 -0.9514 34.062 83.2375)" width="1.296" height="0.972"/>

    <rect x="6.536" y="50.737" transform="matrix(0.308 0.9514 -0.9514 0.308 53.9565 27.6171)" width="2.917" height="0.323"/>

    <rect x="8.27" y="44.321" transform="matrix(-0.9514 0.3081 -0.3081 -0.9514 31.2067 84.6864)" width="1.296" height="0.972"/>

    <rect x="6.728" y="44.82" transform="matrix(-0.9514 0.3081 -0.3081 -0.9514 28.3515 86.1352)" width="1.296" height="0.972"/>

    <rect x="7.534" y="53.82" transform="matrix(0.3079 0.9514 -0.9514 0.3079 57.5822 28.8042)" width="2.916" height="0.324"/>

    <rect x="5.537" y="47.653" transform="matrix(0.308 0.9514 -0.9514 0.308 50.3316 26.4327)" width="2.917" height="0.324"/>

    <rect x="15.152" y="60.482" transform="matrix(0.9514 -0.3081 0.3081 0.9514 -17.9645 7.8254)" width="1.296" height="0.648"/>

    <rect x="8.532" y="56.904" transform="matrix(0.308 0.9514 -0.9514 0.308 61.2052 29.9855)" width="2.917" height="0.324"/>

    <rect x="13.61" y="60.981" transform="matrix(0.9514 -0.308 0.308 0.9514 -18.187 7.3709)" width="1.297" height="0.648"/>

    <rect x="16.694" y="59.983" transform="matrix(0.9514 -0.308 0.308 0.9514 -17.7298 8.2721)" width="1.297" height="0.648"/>

    <rect x="9.53" y="59.988" transform="matrix(0.308 0.9514 -0.9514 0.308 64.83 31.1702)" width="2.917" height="0.324"/>

    <rect x="12.393" y="61.156" transform="matrix(0.3079 0.9514 -0.9514 0.3079 67.6044 30.6777)" width="0.649" height="1.296"/>

    <rect x="20.605" y="40.327" transform="matrix(-0.9514 0.308 -0.308 -0.9514 54.0433 73.0988)" width="1.297" height="0.973"/>

    <rect x="11.354" y="43.323" transform="matrix(-0.9514 0.3081 -0.3081 -0.9514 36.9167 81.7888)" width="1.296" height="0.972"/>

    <rect x="19.063" y="40.826" transform="matrix(-0.9514 0.308 -0.308 -0.9514 51.1875 74.5475)" width="1.297" height="0.973"/>

    <rect x="25.231" y="38.83" transform="matrix(-0.9516 0.3074 -0.3074 -0.9516 62.5906 68.774)" width="1.296" height="0.973"/>

    <rect x="23.689" y="39.329" transform="matrix(-0.9514 0.3081 -0.3081 -0.9514 59.7571 70.1974)" width="1.296" height="0.973"/>

    <rect x="22.147" y="39.828" transform="matrix(-0.9514 0.3081 -0.3081 -0.9514 56.9014 71.6463)" width="1.296" height="0.973"/>

    <rect x="14.438" y="42.324" transform="matrix(-0.9514 0.3081 -0.3081 -0.9514 42.6272 78.8911)" width="1.296" height="0.972"/>

    <rect x="12.896" y="42.823" transform="matrix(-0.9514 0.3081 -0.3081 -0.9514 39.772 80.3399)" width="1.296" height="0.972"/>

    <rect x="15.979" y="41.824" transform="matrix(-0.9514 0.308 -0.308 -0.9514 45.4778 77.4447)" width="1.297" height="0.973"/>

    <rect x="17.521" y="41.326" transform="matrix(-0.9514 0.3081 -0.3081 -0.9514 48.3368 75.9936)" width="1.296" height="0.972"/>

    <rect x="21.32" y="58.486" transform="matrix(0.9514 -0.3081 0.3081 0.9514 -17.0496 9.6284)" width="1.296" height="0.648"/>

    <rect x="41.365" y="51.997" transform="matrix(0.9514 -0.3081 0.3081 0.9514 -14.0758 15.4883)" width="1.296" height="0.649"/>

    <rect x="39.823" y="52.496" transform="matrix(0.9514 -0.3081 0.3081 0.9514 -14.3046 15.0375)" width="1.296" height="0.649"/>

    <rect x="36.739" y="53.494" transform="matrix(0.9514 -0.3081 0.3081 0.9514 -14.7621 14.136)" width="1.296" height="0.649"/>

    <rect x="42.907" y="51.498" transform="matrix(0.9514 -0.3081 0.3081 0.9514 -13.8469 15.9391)" width="1.296" height="0.648"/>

    <rect x="38.281" y="52.995" transform="matrix(0.9514 -0.3081 0.3081 0.9514 -14.5333 14.5867)" width="1.296" height="0.649"/>

    <rect x="11.475" y="61.83" transform="matrix(0.9517 -0.3072 0.3072 0.9517 -18.5297 6.5798)" width="0.324" height="0.648"/>

    <rect x="43.75" y="32.942" transform="matrix(-0.9511 0.309 -0.309 -0.9511 96.319 51.6018)" width="0.648" height="0.972"/>

    <rect x="44.448" y="50.999" transform="matrix(0.9514 -0.308 0.308 0.9514 -13.6143 16.383)" width="1.297" height="0.649"/>

    <rect x="35.197" y="53.994" transform="matrix(0.9516 -0.3074 0.3074 0.9516 -14.9618 13.6488)" width="1.296" height="0.649"/>

    <rect x="45.99" y="50.5" transform="matrix(0.9514 -0.3081 0.3081 0.9514 -13.3897 16.8404)" width="1.296" height="0.649"/>

    <rect x="47.532" y="50.001" transform="matrix(0.9514 -0.3079 0.3079 0.9514 -13.1532 17.2771)" width="1.297" height="0.649"/>

    <rect x="22.862" y="57.987" transform="matrix(0.9514 -0.3081 0.3081 0.9514 -16.8208 10.0792)" width="1.296" height="0.648"/>

    <rect x="18.236" y="59.484" transform="matrix(0.9514 -0.3081 0.3081 0.9514 -17.5071 8.7268)" width="1.296" height="0.648"/>

    <rect x="24.404" y="57.488" transform="matrix(0.9514 -0.3081 0.3081 0.9514 -16.5921 10.53)" width="1.296" height="0.648"/>

    <rect x="19.778" y="58.985" transform="matrix(0.9514 -0.3081 0.3081 0.9514 -17.2783 9.1776)" width="1.296" height="0.648"/>

    <rect x="26.773" y="38.331" transform="matrix(-0.9516 0.3074 -0.3074 -0.9516 65.447 67.326)" width="1.296" height="0.973"/>

    <rect x="25.946" y="56.989" transform="matrix(0.9514 -0.3081 0.3081 0.9514 -16.3634 10.9807)" width="1.296" height="0.648"/>

    <rect x="27.487" y="56.49" transform="matrix(0.9514 -0.308 0.308 0.9514 -16.1294 11.4263)" width="1.297" height="0.648"/>

    <rect x="30.571" y="55.492" transform="matrix(0.9514 -0.308 0.308 0.9514 -15.6721 12.3275)" width="1.297" height="0.648"/>

    <rect x="33.655" y="54.493" transform="matrix(0.9516 -0.3074 0.3074 0.9516 -15.1899 13.1989)" width="1.296" height="0.649"/>

    <rect x="32.113" y="54.992" transform="matrix(0.9516 -0.3074 0.3074 0.9516 -15.4179 12.7492)" width="1.296" height="0.649"/>

    <rect x="29.029" y="55.991" transform="matrix(0.9513 -0.3082 0.3082 0.9513 -15.9111 11.8875)" width="1.296" height="0.648"/>

    <rect x="39.108" y="34.339" transform="matrix(-0.9514 0.3081 -0.3081 -0.9514 88.3075 55.7084)" width="1.296" height="0.972"/>

    <rect x="26.838" y="53.35" transform="matrix(0.9514 -0.308 0.308 0.9514 -15.5436 11.129)" width="1.297" height="2.917"/>

    <rect x="25.297" y="53.85" transform="matrix(0.9514 -0.308 0.308 0.9514 -15.7722 10.6785)" width="1.297" height="2.917"/>

    <rect x="28.381" y="52.851" transform="matrix(0.9513 -0.3082 0.3082 0.9513 -15.3249 11.5899)" width="1.296" height="2.917"/>

    <rect x="22.213" y="54.848" transform="matrix(0.9514 -0.3081 0.3081 0.9514 -16.2349 9.7819)" width="1.296" height="2.917"/>

    <rect x="23.755" y="54.349" transform="matrix(0.9514 -0.308 0.308 0.9514 -16.0009 10.2279)" width="1.297" height="2.917"/>

    <rect x="34.548" y="50.855" transform="matrix(0.9516 -0.3074 0.3074 0.9516 -14.3769 13.3523)" width="1.296" height="2.917"/>

    <rect x="29.922" y="52.352" transform="matrix(0.9514 -0.308 0.308 0.9514 -15.0864 12.0303)" width="1.297" height="2.917"/>

    <rect x="20.671" y="55.347" transform="matrix(0.9514 -0.3081 0.3081 0.9514 -16.4636 9.3311)" width="1.296" height="2.917"/>

    <rect x="36.09" y="50.355" transform="matrix(0.9514 -0.3081 0.3081 0.9514 -14.176 13.8386)" width="1.296" height="2.917"/>

    <rect x="33.006" y="51.354" transform="matrix(0.9516 -0.3074 0.3074 0.9516 -14.605 12.9024)" width="1.296" height="2.917"/>

    <rect x="31.464" y="51.853" transform="matrix(0.9516 -0.3074 0.3074 0.9516 -14.8332 12.4526)" width="1.296" height="2.918"/>

    <rect x="19.129" y="55.846" transform="matrix(0.9514 -0.3081 0.3081 0.9514 -16.6924 8.8803)" width="1.296" height="2.917"/>

    <rect x="8.613" y="52.984" transform="matrix(0.3078 0.9514 -0.9514 0.3078 57.9992 27.5403)" width="2.917" height="1.296"/>

    <rect x="9.611" y="56.068" transform="matrix(0.308 0.9514 -0.9514 0.308 61.6195 28.7167)" width="2.917" height="1.296"/>

    <rect x="7.427" y="46.006" transform="matrix(-0.9514 0.3081 -0.3081 -0.9514 30.3805 90.1322)" width="1.296" height="2.917"/>

    <rect x="11.963" y="54.758" transform="matrix(0.9514 -0.308 0.308 0.9514 -16.7 6.6163)" width="1.297" height="2.917"/>

    <rect x="7.615" y="49.9" transform="matrix(0.3081 0.9514 -0.9514 0.3081 54.3677 26.3435)" width="2.916" height="1.296"/>

    <rect x="37.632" y="49.856" transform="matrix(0.9514 -0.3081 0.3081 0.9514 -13.9472 14.2894)" width="1.296" height="2.917"/>

    <rect x="12.151" y="58.652" transform="matrix(0.308 0.9514 -0.9514 0.308 65.8361 28.0886)" width="2.917" height="1.296"/>

    <rect x="16.045" y="56.844" transform="matrix(0.9514 -0.308 0.308 0.9514 -17.144 7.9749)" width="1.297" height="2.917"/>

    <rect x="17.587" y="56.345" transform="matrix(0.9514 -0.3081 0.3081 0.9514 -16.9211 8.4295)" width="1.296" height="2.917"/>

    <rect x="14.504" y="57.343" transform="matrix(0.9514 -0.3081 0.3081 0.9514 -17.3786 7.5281)" width="1.296" height="2.917"/>

    <rect x="40.716" y="48.858" transform="matrix(0.9514 -0.3081 0.3081 0.9514 -13.4897 15.1909)" width="1.296" height="2.917"/>

    <rect x="42.89" y="34.526" transform="matrix(-0.9514 0.3081 -0.3081 -0.9514 96.0457 56.806)" width="1.296" height="2.917"/>

    <rect x="8.968" y="45.507" transform="matrix(-0.9514 0.308 -0.308 -0.9514 33.2304 88.6862)" width="1.297" height="2.917"/>

    <rect x="40.65" y="33.84" transform="matrix(-0.9514 0.3081 -0.3081 -0.9514 91.1627 54.2596)" width="1.296" height="0.972"/>

    <rect x="42.354" y="33.178" transform="matrix(-0.3076 -0.9515 0.9515 -0.3076 23.8329 84.9954)" width="0.973" height="1.296"/>

    <rect x="36.024" y="35.337" transform="matrix(-0.9514 0.308 -0.308 -0.9514 82.5953 58.6112)" width="1.297" height="0.972"/>

    <rect x="37.566" y="34.838" transform="matrix(-0.9514 0.308 -0.308 -0.9514 85.4497 57.1627)" width="1.297" height="0.972"/>

    <rect x="34.482" y="35.836" transform="matrix(-0.9514 0.3081 -0.3081 -0.9514 79.7417 60.0549)" width="1.296" height="0.972"/>

    <rect x="31.399" y="36.834" transform="matrix(-0.9514 0.3081 -0.3081 -0.9514 74.0331 62.9523)" width="1.296" height="0.972"/>

    <rect x="29.856" y="37.334" transform="matrix(-0.9512 0.3085 -0.3085 -0.9512 71.19 64.3825)" width="1.298" height="0.972"/>

    <rect x="32.94" y="36.335" transform="matrix(-0.9514 0.308 -0.308 -0.9514 76.8851 61.5085)" width="1.297" height="0.972"/>

    <rect x="39.174" y="49.357" transform="matrix(0.9514 -0.308 0.308 0.9514 -13.7143 14.734)" width="1.297" height="2.917"/>

    <rect x="43.799" y="47.86" transform="matrix(0.9514 -0.308 0.308 0.9514 -13.0284 16.0856)" width="1.297" height="2.917"/>

    <rect x="45.341" y="47.361" transform="matrix(0.9514 -0.3081 0.3081 0.9514 -12.8036 16.543)" width="1.296" height="2.917"/>

    <rect x="43.313" y="35.262" transform="matrix(-0.308 -0.9514 0.9514 -0.308 24.7047 89.1414)" width="2.917" height="0.648"/>

    <rect x="28.315" y="37.832" transform="matrix(-0.9516 0.3074 -0.3074 -0.9516 68.3029 65.8781)" width="1.296" height="0.973"/>

    <rect x="46.883" y="46.862" transform="matrix(0.9514 -0.308 0.308 0.9514 -12.5712 16.9869)" width="1.297" height="2.917"/>

    <rect x="42.258" y="48.359" transform="matrix(0.9514 -0.308 0.308 0.9514 -13.257 15.6351)" width="1.297" height="2.917"/>

    <rect x="45.31" y="41.43" transform="matrix(-0.308 -0.9514 0.9514 -0.308 21.448 99.1086)" width="2.917" height="0.648"/>

    <rect x="44.312" y="38.346" transform="matrix(-0.3078 -0.9514 0.9514 -0.3078 23.0678 94.1216)" width="2.917" height="0.648"/>

    <rect x="48.441" y="46.463" transform="matrix(0.9511 -0.3088 0.3088 0.9511 -12.4136 17.3983)" width="0.648" height="2.917"/>

    <rect x="46.308" y="44.513" transform="matrix(-0.308 -0.9514 0.9514 -0.308 19.8198 104.0912)" width="2.917" height="0.648"/>
</g>
<g>

    <rect x="100.783" y="25.705" transform="matrix(0.9514 -0.3079 0.3079 0.9514 -3.4364 32.5461)" width="1.297" height="2.917"/>

    <rect x="102.326" y="25.206" transform="matrix(0.9513 -0.3083 0.3083 0.9513 -3.2049 33.0459)" width="1.296" height="2.917"/>

    <rect x="96.158" y="27.204" transform="matrix(0.9514 -0.3081 0.3081 0.9514 -4.1217 31.2183)" width="1.296" height="2.918"/>

    <rect x="76.845" y="34.002" transform="matrix(0.308 0.9514 -0.9514 0.308 87.1535 -50.5184)" width="2.917" height="1.297"/>

    <rect x="99.242" y="26.204" transform="matrix(0.9514 -0.3081 0.3081 0.9514 -3.6638 32.1198)" width="1.296" height="2.917"/>

    <rect x="97.699" y="26.704" transform="matrix(0.9517 -0.3072 0.3072 0.9517 -3.896 31.5719)" width="1.297" height="2.917"/>

    <rect x="110.035" y="22.711" transform="matrix(0.9514 -0.3079 0.3079 0.9514 -2.0652 35.249)" width="1.297" height="2.917"/>

    <rect x="108.492" y="23.211" transform="matrix(0.9514 -0.3081 0.3081 0.9514 -2.2915 34.824)" width="1.296" height="2.917"/>

    <rect x="105.41" y="24.208" transform="matrix(0.9513 -0.3083 0.3083 0.9513 -2.747 33.948)" width="1.296" height="2.917"/>

    <rect x="106.951" y="23.709" transform="matrix(0.9514 -0.3079 0.3079 0.9514 -2.5223 34.348)" width="1.297" height="2.917"/>

    <rect x="108.226" y="20.438" transform="matrix(-0.308 -0.9514 0.9514 -0.308 123.4049 131.9336)" width="2.917" height="1.296"/>

    <rect x="82.281" y="31.695" transform="matrix(0.9516 -0.3074 0.3074 0.9516 -6.1759 27.0976)" width="1.296" height="2.917"/>

    <rect x="85.365" y="30.697" transform="matrix(0.9515 -0.3076 0.3076 0.9515 -5.7208 28.0184)" width="1.295" height="2.917"/>

    <rect x="94.616" y="27.703" transform="matrix(0.9514 -0.3081 0.3081 0.9514 -4.3503 30.7675)" width="1.296" height="2.917"/>

    <rect x="80.739" y="32.194" transform="matrix(0.9511 -0.3088 0.3088 0.9511 -6.4139 26.7736)" width="1.297" height="2.917"/>

    <rect x="79.197" y="32.693" transform="matrix(0.9516 -0.3074 0.3074 0.9516 -6.632 26.1979)" width="1.296" height="2.917"/>

    <rect x="83.822" y="31.196" transform="matrix(0.9512 -0.3085 0.3085 0.9512 -5.9539 27.6559)" width="1.298" height="2.917"/>

    <rect x="91.533" y="28.701" transform="matrix(0.9513 -0.3083 0.3083 0.9513 -4.8078 29.8886)" width="1.296" height="2.917"/>

    <rect x="93.074" y="28.202" transform="matrix(0.9514 -0.3081 0.3081 0.9514 -4.5792 30.3167)" width="1.296" height="2.918"/>

    <rect x="86.906" y="30.198" transform="matrix(0.9512 -0.3085 0.3085 0.9512 -5.4955 28.5587)" width="1.298" height="2.917"/>

    <rect x="89.99" y="29.2" transform="matrix(0.9514 -0.3079 0.3079 0.9514 -5.0363 29.3931)" width="1.297" height="2.918"/>

    <rect x="88.449" y="29.699" transform="matrix(0.9513 -0.3083 0.3083 0.9513 -5.2657 28.9864)" width="1.296" height="2.917"/>

    <rect x="103.867" y="24.707" transform="matrix(0.9514 -0.3079 0.3079 0.9514 -2.9793 33.4471)" width="1.297" height="2.917"/>

    <rect x="91.621" y="18.451" transform="matrix(-0.9514 0.3079 -0.3079 -0.9514 186.1869 10.4453)" width="1.297" height="2.917"/>

    <rect x="86.996" y="19.948" transform="matrix(-0.9515 0.3076 -0.3076 -0.9515 177.6223 14.8146)" width="1.295" height="2.917"/>

    <rect x="83.912" y="20.947" transform="matrix(-0.9514 0.3081 -0.3081 -0.9514 171.9098 17.6694)" width="1.296" height="2.917"/>

    <rect x="88.538" y="19.449" transform="matrix(-0.9514 0.3081 -0.3081 -0.9514 180.4752 13.321)" width="1.296" height="2.917"/>

    <rect x="90.08" y="18.95" transform="matrix(-0.9513 0.3083 -0.3083 -0.9513 183.3275 11.8508)" width="1.296" height="2.917"/>

    <rect x="85.453" y="20.447" transform="matrix(-0.9514 0.3079 -0.3079 -0.9514 174.7652 16.2403)" width="1.297" height="2.918"/>

    <rect x="82.37" y="21.446" transform="matrix(-0.9514 0.3081 -0.3081 -0.9514 169.0545 19.1182)" width="1.296" height="2.917"/>

    <rect x="76.203" y="23.442" transform="matrix(-0.9513 0.3083 -0.3083 -0.9513 157.6345 24.8947)" width="1.296" height="2.917"/>

    <rect x="77.744" y="22.943" transform="matrix(-0.9514 0.3079 -0.3079 -0.9514 160.49 23.4836)" width="1.297" height="2.917"/>

    <rect x="107.228" y="17.354" transform="matrix(-0.308 -0.9514 0.9514 -0.308 125.0336 126.9502)" width="2.917" height="1.296"/>

    <rect x="79.287" y="22.444" transform="matrix(-0.9513 0.3083 -0.3083 -0.9513 163.3445 21.9964)" width="1.296" height="2.917"/>

    <rect x="80.828" y="21.945" transform="matrix(-0.9514 0.3079 -0.3079 -0.9514 166.2009 20.5866)" width="1.297" height="2.917"/>

    <rect x="103.957" y="14.458" transform="matrix(-0.9515 0.3076 -0.3076 -0.9515 209.0329 -1.1172)" width="1.295" height="2.917"/>

    <rect x="74.66" y="23.941" transform="matrix(-0.9514 0.3079 -0.3079 -0.9514 154.779 26.3807)" width="1.297" height="2.917"/>

    <rect x="93.164" y="17.952" transform="matrix(-0.9513 0.3083 -0.3083 -0.9513 189.0375 8.9525)" width="1.296" height="2.917"/>

    <rect x="100.873" y="15.456" transform="matrix(-0.9514 0.3079 -0.3079 -0.9514 203.3197 1.7541)" width="1.297" height="2.917"/>

    <rect x="104.688" y="14.768" transform="matrix(-0.308 -0.9514 0.9514 -0.308 124.1699 121.1521)" width="2.917" height="1.297"/>

    <rect x="106.496" y="17.042" transform="matrix(-0.9514 0.3079 -0.3079 -0.9514 214.7809 3.1178)" width="1.297" height="2.917"/>

    <rect x="96.248" y="16.954" transform="matrix(-0.9513 0.3083 -0.3083 -0.9513 194.7476 6.0543)" width="1.296" height="2.917"/>

    <rect x="94.705" y="17.453" transform="matrix(-0.9514 0.3079 -0.3079 -0.9514 191.8979 7.5482)" width="1.297" height="2.917"/>

    <rect x="99.33" y="15.955" transform="matrix(-0.9514 0.3079 -0.3079 -0.9514 200.4623 3.2029)" width="1.297" height="2.917"/>

    <rect x="97.789" y="16.454" transform="matrix(-0.9514 0.3079 -0.3079 -0.9514 197.6088 4.6512)" width="1.297" height="2.917"/>

    <rect x="102.414" y="14.957" transform="matrix(-0.9514 0.3079 -0.3079 -0.9514 206.1732 0.3059)" width="1.297" height="2.917"/>

    <rect x="92.076" y="25.118" transform="matrix(0.9514 -0.3081 0.3081 0.9514 -3.6775 29.8592)" width="1.296" height="2.917"/>

    <rect x="93.617" y="24.619" transform="matrix(0.9514 -0.3081 0.3081 0.9514 -3.4488 30.3098)" width="1.296" height="2.917"/>

    <rect x="104.411" y="21.124" transform="matrix(0.9514 -0.3081 0.3081 0.9514 -1.8473 33.4651)" width="1.296" height="2.917"/>

    <rect x="95.16" y="24.12" transform="matrix(0.9514 -0.3081 0.3081 0.9514 -3.22 30.7608)" width="1.296" height="2.917"/>

    <rect x="90.534" y="25.617" transform="matrix(0.9513 -0.3083 0.3083 0.9513 -3.9057 29.4305)" width="1.296" height="2.917"/>

    <rect x="87.45" y="26.615" transform="matrix(0.9511 -0.3088 0.3088 0.9511 -4.3634 28.5731)" width="1.297" height="2.916"/>

    <rect x="102.869" y="21.623" transform="matrix(0.9514 -0.3079 0.3079 0.9514 -2.0784 32.99)" width="1.297" height="2.917"/>

    <rect x="76.657" y="30.109" transform="matrix(0.9515 -0.3077 0.3077 0.9515 -5.9629 25.3218)" width="1.296" height="2.917"/>

    <rect x="98.244" y="23.121" transform="matrix(0.9514 -0.3081 0.3081 0.9514 -2.7624 31.6623)" width="1.296" height="2.916"/>

    <rect x="99.785" y="22.622" transform="matrix(0.9514 -0.3079 0.3079 0.9514 -2.5356 32.0891)" width="1.297" height="2.916"/>

    <rect x="96.701" y="23.621" transform="matrix(0.9514 -0.3079 0.3079 0.9514 -2.9927 31.1881)" width="1.297" height="2.917"/>

    <rect x="88.992" y="26.116" transform="matrix(0.9516 -0.3074 0.3074 0.9516 -4.1361 28.8904)" width="1.296" height="2.917"/>

    <rect x="107.494" y="20.126" transform="matrix(0.9514 -0.3079 0.3079 0.9514 -1.3928 34.3412)" width="1.297" height="2.917"/>

    <rect x="105.953" y="20.625" transform="matrix(-0.9514 0.3081 -0.3081 -0.9514 214.8207 10.252)" width="1.296" height="2.917"/>

    <rect x="70.285" y="24.102" transform="matrix(0.9517 -0.3072 0.3072 0.9517 -4.147 22.8286)" width="0.324" height="0.973"/>

    <rect x="113.24" y="28.534" transform="matrix(-0.9515 0.3076 -0.3076 -0.9515 230.4978 21.3841)" width="0.648" height="0.649"/>

    <rect x="79.74" y="29.111" transform="matrix(0.9514 -0.3081 0.3081 0.9514 -5.5077 26.2531)" width="1.296" height="2.916"/>

    <rect x="78.199" y="29.609" transform="matrix(-0.9516 0.3074 -0.3074 -0.9516 163.4268 36.3934)" width="1.296" height="2.917"/>

    <rect x="82.824" y="28.113" transform="matrix(0.9514 -0.3081 0.3081 0.9514 -5.0502 27.1547)" width="1.296" height="2.916"/>

    <rect x="84.367" y="27.614" transform="matrix(0.9513 -0.3083 0.3083 0.9513 -4.8216 27.6263)" width="1.296" height="2.916"/>

    <rect x="81.283" y="28.612" transform="matrix(0.9514 -0.3081 0.3081 0.9514 -5.2787 26.704)" width="1.296" height="2.916"/>

    <rect x="85.908" y="27.115" transform="matrix(0.9514 -0.3079 0.3079 0.9514 -4.5926 28.0351)" width="1.297" height="2.917"/>

    <rect x="101.327" y="22.123" transform="matrix(0.9514 -0.3081 0.3081 0.9514 -2.305 32.5636)" width="1.296" height="2.916"/>

    <rect x="83.368" y="24.53" transform="matrix(-0.9514 0.3081 -0.3081 -0.9514 171.9522 24.8287)" width="1.296" height="2.917"/>

    <rect x="80.285" y="25.528" transform="matrix(-0.9513 0.3083 -0.3083 -0.9513 166.2438 27.7063)" width="1.296" height="2.917"/>

    <rect x="81.826" y="25.029" transform="matrix(-0.9514 0.3079 -0.3079 -0.9514 169.0979 26.2975)" width="1.297" height="2.917"/>

    <rect x="87.994" y="23.032" transform="matrix(-0.9516 0.3074 -0.3074 -0.9516 180.5206 20.5471)" width="1.296" height="2.917"/>

    <rect x="86.452" y="23.532" transform="matrix(-0.9511 0.3088 -0.3088 -0.9511 177.6605 21.8662)" width="1.297" height="2.916"/>

    <rect x="84.91" y="24.031" transform="matrix(-0.9514 0.3081 -0.3081 -0.9514 174.8084 23.3797)" width="1.296" height="2.917"/>

    <rect x="74.305" y="31.418" transform="matrix(0.3077 0.9515 -0.9515 0.3077 82.9634 -49.8877)" width="2.917" height="1.298"/>

    <rect x="74.117" y="27.524" transform="matrix(-0.9511 0.3088 -0.3088 -0.9511 154.8259 33.4645)" width="1.297" height="2.917"/>

    <rect x="75.659" y="27.025" transform="matrix(-0.9515 0.3077 -0.3077 -0.9515 157.6765 32.1013)" width="1.296" height="2.917"/>

    <rect x="78.742" y="26.027" transform="matrix(-0.9514 0.3079 -0.3079 -0.9514 163.387 29.1946)" width="1.297" height="2.917"/>

    <rect x="77.201" y="26.526" transform="matrix(-0.9514 0.3081 -0.3081 -0.9514 160.5331 30.6238)" width="1.296" height="2.917"/>

    <rect x="100.329" y="19.039" transform="matrix(-0.9514 0.3081 -0.3081 -0.9514 203.3577 8.89)" width="1.296" height="2.917"/>

    <rect x="104.144" y="18.352" transform="matrix(-0.308 -0.9514 0.9514 -0.308 120.0503 125.3216)" width="2.917" height="1.296"/>

    <rect x="98.787" y="19.538" transform="matrix(-0.9514 0.3079 -0.3079 -0.9514 200.5058 10.3621)" width="1.297" height="2.917"/>

    <rect x="103.413" y="18.04" transform="matrix(-0.9514 0.3081 -0.3081 -0.9514 209.0678 5.9904)" width="1.296" height="2.917"/>

    <rect x="89.536" y="22.533" transform="matrix(-0.9514 0.3081 -0.3081 -0.9514 183.3729 19.0315)" width="1.296" height="2.917"/>

    <rect x="97.246" y="20.038" transform="matrix(-0.9513 0.3083 -0.3083 -0.9513 197.6468 11.7642)" width="1.296" height="2.917"/>

    <rect x="101.871" y="18.54" transform="matrix(-0.9517 0.3072 -0.3072 -0.9517 206.2256 7.5384)" width="1.297" height="2.917"/>

    <rect x="92.619" y="21.535" transform="matrix(-0.9514 0.3079 -0.3079 -0.9514 189.084 16.1562)" width="1.297" height="2.917"/>

    <rect x="91.078" y="22.034" transform="matrix(-0.9514 0.3081 -0.3081 -0.9514 186.2281 17.5826)" width="1.296" height="2.917"/>

    <rect x="95.703" y="20.537" transform="matrix(-0.9514 0.3079 -0.3079 -0.9514 194.7949 13.2591)" width="1.297" height="2.917"/>

    <rect x="94.162" y="21.036" transform="matrix(-0.9513 0.3083 -0.3083 -0.9513 191.9368 14.6624)" width="1.296" height="2.917"/>

    <rect x="75.57" y="37.274" transform="matrix(0.9511 -0.3088 0.3088 0.9511 -8.235 25.4258)" width="1.297" height="2.917"/>

    <rect x="73.961" y="22.755" transform="matrix(-0.9514 0.3079 -0.3079 -0.9514 152.7509 22.3833)" width="1.297" height="0.972"/>

    <rect x="70.685" y="29.67" transform="matrix(0.3079 0.9514 -0.9514 0.3079 78.3108 -47.9928)" width="2.918" height="0.323"/>

    <rect x="72.421" y="23.254" transform="matrix(-0.9513 0.3083 -0.3083 -0.9513 149.8965 23.796)" width="1.296" height="0.972"/>

    <rect x="70.877" y="23.753" transform="matrix(-0.9514 0.3079 -0.3079 -0.9514 147.04 25.2803)" width="1.297" height="0.972"/>

    <rect x="71.685" y="32.753" transform="matrix(0.3079 0.9514 -0.9514 0.3079 81.9398 -46.808)" width="2.915" height="0.324"/>

    <rect x="69.687" y="26.586" transform="matrix(0.308 0.9514 -0.9514 0.308 74.6818 -49.1779)" width="2.917" height="0.323"/>

    <rect x="79.302" y="39.415" transform="matrix(0.9511 -0.309 0.309 0.9511 -8.3663 26.6478)" width="1.296" height="0.647"/>

    <rect x="72.682" y="35.836" transform="matrix(0.308 0.9514 -0.9514 0.308 85.555 -45.6255)" width="2.917" height="0.324"/>

    <rect x="77.76" y="39.914" transform="matrix(0.9517 -0.3072 0.3072 0.9517 -8.5694 26.0309)" width="1.297" height="0.649"/>

    <rect x="80.844" y="38.916" transform="matrix(0.9517 -0.3072 0.3072 0.9517 -8.1138 26.9299)" width="1.297" height="0.649"/>

    <rect x="73.68" y="38.92" transform="matrix(0.308 0.9514 -0.9514 0.308 89.1798 -44.4409)" width="2.917" height="0.324"/>

    <rect x="76.543" y="40.089" transform="matrix(0.3085 0.9512 -0.9512 0.3085 91.9002 -44.9488)" width="0.649" height="1.297"/>

    <rect x="84.755" y="19.261" transform="matrix(-0.9514 0.3079 -0.3079 -0.9514 172.7381 12.2428)" width="1.297" height="0.973"/>

    <rect x="75.505" y="22.256" transform="matrix(-0.9513 0.3083 -0.3083 -0.9513 155.6065 20.8977)" width="1.296" height="0.972"/>

    <rect x="83.213" y="19.76" transform="matrix(-0.9514 0.3081 -0.3081 -0.9514 169.8811 13.6713)" width="1.296" height="0.973"/>

    <rect x="89.382" y="17.763" transform="matrix(-0.9515 0.3076 -0.3076 -0.9515 181.3069 7.9193)" width="1.295" height="0.973"/>

    <rect x="87.838" y="18.262" transform="matrix(-0.9514 0.3079 -0.3079 -0.9514 178.448 9.3459)" width="1.297" height="0.973"/>

    <rect x="86.298" y="18.762" transform="matrix(-0.9513 0.3083 -0.3083 -0.9513 175.5896 10.7531)" width="1.296" height="0.973"/>

    <rect x="78.589" y="21.258" transform="matrix(-0.9513 0.3083 -0.3083 -0.9513 161.3166 17.9994)" width="1.296" height="0.972"/>

    <rect x="77.045" y="21.756" transform="matrix(-0.9514 0.3079 -0.3079 -0.9514 158.4609 19.4864)" width="1.297" height="0.972"/>

    <rect x="80.129" y="20.757" transform="matrix(-0.9514 0.3079 -0.3079 -0.9514 164.1717 16.5883)" width="1.297" height="0.973"/>

    <rect x="81.671" y="20.26" transform="matrix(-0.9514 0.3081 -0.3081 -0.9514 167.026 15.1211)" width="1.296" height="0.972"/>

    <rect x="85.47" y="37.419" transform="matrix(0.9511 -0.3088 0.3088 0.9511 -7.4456 28.4342)" width="1.297" height="0.647"/>

    <rect x="105.515" y="30.93" transform="matrix(0.9511 -0.3088 0.3088 0.9511 -4.4631 34.3063)" width="1.297" height="0.649"/>

    <rect x="103.973" y="31.43" transform="matrix(0.9516 -0.3074 0.3074 0.9516 -4.6955 33.6978)" width="1.296" height="0.649"/>

    <rect x="100.889" y="32.428" transform="matrix(0.9516 -0.3074 0.3074 0.9516 -5.1516 32.7981)" width="1.296" height="0.649"/>

    <rect x="107.057" y="30.432" transform="matrix(0.9516 -0.3074 0.3074 0.9516 -4.2393 34.5975)" width="1.296" height="0.649"/>

    <rect x="102.431" y="31.929" transform="matrix(0.9511 -0.3088 0.3088 0.9511 -4.922 33.4029)" width="1.297" height="0.649"/>

    <rect x="75.625" y="40.763" transform="matrix(0.9517 -0.3072 0.3072 0.9517 -8.9569 25.2667)" width="0.324" height="0.649"/>

    <rect x="107.899" y="11.875" transform="matrix(-0.9512 0.3085 -0.3085 -0.9512 214.98 -9.2727)" width="0.649" height="0.972"/>

    <rect x="108.598" y="29.933" transform="matrix(0.9513 -0.3082 0.3082 0.9513 -4.0073 35.1428)" width="1.298" height="0.649"/>

    <rect x="99.347" y="32.928" transform="matrix(0.9516 -0.3074 0.3074 0.9516 -5.3799 32.3484)" width="1.296" height="0.649"/>

    <rect x="110.14" y="29.433" transform="matrix(0.9514 -0.3081 0.3081 0.9514 -3.779 35.5791)" width="1.296" height="0.648"/>

    <rect x="111.681" y="28.935" transform="matrix(0.9514 -0.3079 0.3079 0.9514 -3.5519 36.003)" width="1.297" height="0.649"/>

    <rect x="87.012" y="36.92" transform="matrix(0.9516 -0.3074 0.3074 0.9516 -7.2044 28.7498)" width="1.296" height="0.649"/>

    <rect x="82.386" y="38.417" transform="matrix(0.9511 -0.3088 0.3088 0.9511 -7.9044 27.5307)" width="1.297" height="0.647"/>

    <rect x="88.554" y="36.421" transform="matrix(0.9511 -0.3088 0.3088 0.9511 -6.9867 29.3376)" width="1.297" height="0.647"/>

    <rect x="83.928" y="37.918" transform="matrix(0.9516 -0.3074 0.3074 0.9516 -7.6605 27.8501)" width="1.296" height="0.649"/>

    <rect x="90.922" y="17.264" transform="matrix(-0.9517 0.3072 -0.3072 -0.9517 184.1669 6.5142)" width="1.297" height="0.973"/>

    <rect x="90.096" y="35.922" transform="matrix(0.9516 -0.3074 0.3074 0.9516 -6.7483 29.6495)" width="1.296" height="0.649"/>

    <rect x="91.637" y="35.423" transform="matrix(0.9512 -0.3085 0.3085 0.9512 -6.5266 30.218)" width="1.298" height="0.647"/>

    <rect x="94.72" y="34.425" transform="matrix(0.9512 -0.3085 0.3085 0.9512 -6.0682 31.1207)" width="1.298" height="0.647"/>

    <rect x="97.805" y="33.426" transform="matrix(0.9516 -0.3074 0.3074 0.9516 -5.6077 31.8984)" width="1.296" height="0.649"/>

    <rect x="96.264" y="33.926" transform="matrix(0.9515 -0.3076 0.3076 0.9515 -5.8367 31.4726)" width="1.295" height="0.649"/>

    <rect x="93.18" y="34.924" transform="matrix(0.9515 -0.3076 0.3076 0.9515 -6.2933 30.5723)" width="1.295" height="0.649"/>

    <rect x="103.258" y="13.272" transform="matrix(-0.9513 0.3083 -0.3083 -0.9513 206.9928 -5.1881)" width="1.296" height="0.972"/>

    <rect x="90.988" y="32.284" transform="matrix(0.9512 -0.3085 0.3085 0.9512 -5.94 29.92)" width="1.298" height="2.917"/>

    <rect x="89.447" y="32.783" transform="matrix(0.9516 -0.3074 0.3074 0.9516 -6.1634 29.3531)" width="1.296" height="2.917"/>

    <rect x="92.531" y="31.785" transform="matrix(0.9515 -0.3076 0.3076 0.9515 -5.708 30.2756)" width="1.295" height="2.917"/>

    <rect x="86.363" y="33.781" transform="matrix(0.9516 -0.3074 0.3074 0.9516 -6.6195 28.4534)" width="1.296" height="2.917"/>

    <rect x="87.904" y="33.282" transform="matrix(0.9512 -0.3085 0.3085 0.9512 -6.3984 29.0171)" width="1.298" height="2.917"/>

    <rect x="98.698" y="29.788" transform="matrix(0.9515 -0.3077 0.3077 0.9515 -4.7947 32.0892)" width="1.296" height="2.917"/>

    <rect x="94.072" y="31.286" transform="matrix(0.9512 -0.3085 0.3085 0.9512 -5.4816 30.8228)" width="1.298" height="2.917"/>

    <rect x="84.821" y="34.28" transform="matrix(0.9511 -0.3088 0.3088 0.9511 -6.8585 28.1359)" width="1.297" height="2.917"/>

    <rect x="100.24" y="29.288" transform="matrix(0.9514 -0.3081 0.3081 0.9514 -4.5653 32.5773)" width="1.296" height="2.917"/>

    <rect x="97.156" y="30.287" transform="matrix(0.9516 -0.3074 0.3074 0.9516 -5.0228 31.602)" width="1.296" height="2.917"/>

    <rect x="95.614" y="30.787" transform="matrix(0.9516 -0.3074 0.3074 0.9516 -5.2512 31.1522)" width="1.296" height="2.917"/>

    <rect x="83.279" y="34.779" transform="matrix(0.9516 -0.3074 0.3074 0.9516 -7.0756 27.5537)" width="1.296" height="2.917"/>

    <rect x="72.763" y="31.918" transform="matrix(0.308 0.9514 -0.9514 0.308 82.3453 -48.078)" width="2.917" height="1.295"/>

    <rect x="73.761" y="35.002" transform="matrix(0.308 0.9514 -0.9514 0.308 85.9701 -46.8934)" width="2.917" height="1.295"/>

    <rect x="71.577" y="24.939" transform="matrix(-0.9514 0.3081 -0.3081 -0.9514 149.0697 29.2598)" width="1.296" height="2.917"/>

    <rect x="76.113" y="33.691" transform="matrix(0.9517 -0.3072 0.3072 0.9517 -7.0859 25.279)" width="1.297" height="2.917"/>

    <rect x="71.765" y="28.834" transform="matrix(0.308 0.9514 -0.9514 0.308 78.7164 -49.2623)" width="2.917" height="1.296"/>

    <rect x="101.782" y="28.789" transform="matrix(0.9514 -0.3081 0.3081 0.9514 -4.3367 33.0281)" width="1.296" height="2.918"/>

    <rect x="76.301" y="37.585" transform="matrix(0.308 0.9514 -0.9514 0.308 90.1862 -47.5218)" width="2.917" height="1.297"/>

    <rect x="80.195" y="35.777" transform="matrix(0.9517 -0.3072 0.3072 0.9517 -7.5293 26.6337)" width="1.297" height="2.917"/>

    <rect x="81.737" y="35.278" transform="matrix(0.9511 -0.3088 0.3088 0.9511 -7.3174 27.2324)" width="1.297" height="2.917"/>

    <rect x="78.654" y="36.276" transform="matrix(0.9511 -0.309 0.309 0.9511 -7.7789 26.3494)" width="1.296" height="2.917"/>

    <rect x="104.866" y="27.791" transform="matrix(0.9514 -0.3081 0.3081 0.9514 -3.8792 33.9296)" width="1.296" height="2.918"/>

    <rect x="107.041" y="13.459" transform="matrix(-0.9513 0.3083 -0.3083 -0.9513 214.7305 -4.0913)" width="1.296" height="2.917"/>

    <rect x="73.119" y="24.44" transform="matrix(-0.9514 0.3081 -0.3081 -0.9514 151.925 27.8109)" width="1.296" height="2.917"/>

    <rect x="104.799" y="12.773" transform="matrix(-0.9514 0.3079 -0.3079 -0.9514 209.8561 -6.5886)" width="1.297" height="0.972"/>

    <rect x="106.503" y="12.112" transform="matrix(-0.3081 -0.9514 0.9514 -0.3081 127.8128 118.4764)" width="0.973" height="1.296"/>

    <rect x="100.174" y="14.27" transform="matrix(-0.9514 0.3079 -0.3079 -0.9514 201.2906 -2.2432)" width="1.297" height="0.972"/>

    <rect x="101.715" y="13.771" transform="matrix(-0.9514 0.3079 -0.3079 -0.9514 204.1452 -3.6916)" width="1.297" height="0.972"/>

    <rect x="98.631" y="14.769" transform="matrix(-0.9514 0.3079 -0.3079 -0.9514 198.4342 -0.7945)" width="1.297" height="0.972"/>

    <rect x="95.549" y="15.767" transform="matrix(-0.9513 0.3083 -0.3083 -0.9513 192.7196 2.0573)" width="1.296" height="0.972"/>

    <rect x="94.006" y="16.267" transform="matrix(-0.9512 0.3085 -0.3085 -0.9512 189.8604 3.4836)" width="1.298" height="0.972"/>

    <rect x="97.09" y="15.268" transform="matrix(-0.9514 0.3079 -0.3079 -0.9514 195.5807 0.6537)" width="1.297" height="0.972"/>

    <rect x="103.324" y="28.29" transform="matrix(0.9514 -0.3081 0.3081 0.9514 -4.1078 33.4788)" width="1.296" height="2.917"/>

    <rect x="107.949" y="26.793" transform="matrix(0.9514 -0.3079 0.3079 0.9514 -3.4232 34.8051)" width="1.297" height="2.917"/>

    <rect x="109.491" y="26.294" transform="matrix(0.9514 -0.3081 0.3081 0.9514 -3.193 35.2817)" width="1.296" height="2.917"/>

    <rect x="107.463" y="14.195" transform="matrix(-0.308 -0.9514 0.9514 -0.308 128.6544 122.6181)" width="2.917" height="0.649"/>

    <rect x="92.466" y="16.765" transform="matrix(-0.9515 0.3076 -0.3076 -0.9515 187.0183 5.0229)" width="1.295" height="0.973"/>

    <rect x="111.033" y="25.795" transform="matrix(0.9514 -0.3079 0.3079 0.9514 -2.9662 35.706)" width="1.297" height="2.917"/>

    <rect x="106.408" y="27.292" transform="matrix(0.9514 -0.3081 0.3081 0.9514 -3.6504 34.3804)" width="1.296" height="2.917"/>

    <rect x="109.46" y="20.363" transform="matrix(-0.308 -0.9514 0.9514 -0.308 125.3977 132.5852)" width="2.917" height="0.648"/>

    <rect x="108.462" y="17.279" transform="matrix(-0.3077 -0.9515 0.9515 -0.3077 126.9913 127.6073)" width="2.917" height="0.649"/>

    <rect x="112.591" y="25.396" transform="matrix(0.9511 -0.309 0.309 0.9511 -2.7724 36.2028)" width="0.648" height="2.917"/>

    <rect x="110.458" y="23.447" transform="matrix(-0.308 -0.9514 0.9514 -0.308 123.7695 137.5679)" width="2.917" height="0.648"/>
</g>
<path d="M51.073,7.7c1.362-0.441,2.824,0.306,3.266,1.668
  c0.44,1.363-0.306,2.825-1.669,3.265c-1.362,0.441-2.824-0.305-3.266-1.668C48.964,9.603,49.711,8.141,51.073,7.7z"/>
<polygon points="50.649,16.219 56.744,14.287 52.475,11.97 "/>
</svg>
