<?xml version="1.0" encoding="utf-8"?>
<svg version="1.1" xmlns="http://www.w3.org/2000/svg" x="0px" y="0px"
	 width="1000px" height="300px" viewBox="0 0 1000 300">
<path fill-rule="evenodd" clip-rule="evenodd" fill="#414750" d="M304,111c1.104,0,2,0.896,2,2s-0.896,2-2,2s-2-0.896-2-2
	S302.896,111,304,111z"/>
<path fill-rule="evenodd" clip-rule="evenodd" fill="#414750" d="M135,67c1.104,0,2,0.896,2,2c0,1.105-0.896,2-2,2s-2-0.895-2-2
	C133,67.896,133.896,67,135,67z"/>
<path fill-rule="evenodd" clip-rule="evenodd" fill="#173942" d="M933.5,25c1.381,0,2.5,1.119,2.5,2.5s-1.119,2.5-2.5,2.5
	s-2.5-1.119-2.5-2.5S932.119,25,933.5,25z"/>
<path fill-rule="evenodd" clip-rule="evenodd" fill="#414750" d="M181.5,271c1.381,0,2.5,1.119,2.5,2.5s-1.119,2.5-2.5,2.5
	s-2.5-1.119-2.5-2.5S180.119,271,181.5,271z"/>
<path fill-rule="evenodd" clip-rule="evenodd" fill="#173942" d="M739.5,210c1.934,0,3.5,1.566,3.5,3.5s-1.566,3.5-3.5,3.5
	s-3.5-1.566-3.5-3.5S737.566,210,739.5,210z"/>
<path fill-rule="evenodd" clip-rule="evenodd" fill="#8C8C8C" d="M438,166c1.657,0,3,1.344,3,3c0,1.657-1.343,3-3,3s-3-1.343-3-3
	C435,167.344,436.343,166,438,166z"/>
<path fill-rule="evenodd" clip-rule="evenodd" fill="#28303B" d="M816.5,55c1.381,0,2.5,1.119,2.5,2.5s-1.119,2.5-2.5,2.5
	s-2.5-1.119-2.5-2.5S815.119,55,816.5,55z"/>
<path fill="#414750" d="M832.893,220.594l-8.805-3.928l-6.617-7.014l8.805,3.929L832.893,220.594z"/>
<path fill="#414750" d="M830.773,207.24l-3.928,8.806l-7.013,6.617l3.929-8.806L830.773,207.24z"/>
<path fill="#414750" d="M240.925,62.1l-7.805,5.662l-9.381,2.225l7.804-5.662L240.925,62.1z"/>
<path fill="#414750" d="M228.301,57.259l5.662,7.804l2.224,9.382l-5.662-7.805L228.301,57.259z"/>
<path fill="#414750" d="M74.794,264.376l-7.378,0.771l-7.106-2.127l7.378-0.771L74.794,264.376z"/>
<path fill="#414750" d="M68.245,256.295l0.77,7.377l-2.127,7.107l-0.77-7.379L68.245,256.295z"/>
<path fill-rule="evenodd" clip-rule="evenodd" fill="#173942" d="M717.761,59.827c0,0-5.656,4.292-6.054,9.026
	c-0.396,4.733,4.466,9.908,4.466,9.908s-4.41-5.666-9.201-6.068c-4.675-0.392-9.732,4.48-9.732,4.48s5.656-4.292,6.054-9.025
	c0.396-4.733-4.466-9.908-4.466-9.908s4.41,5.667,9.201,6.068C712.703,64.699,717.761,59.827,717.761,59.827z"/>
<path fill-rule="evenodd" clip-rule="evenodd" fill="#173942" d="M272.007,179.077c0,0-3.863,2.932-4.134,6.164
	s3.049,6.767,3.049,6.767s-3.012-3.869-6.284-4.145c-3.192-0.268-6.646,3.06-6.646,3.06s3.863-2.931,4.134-6.163
	c0.271-3.233-3.049-6.768-3.049-6.768s3.012,3.87,6.284,4.145C268.553,182.404,272.007,179.077,272.007,179.077z"/>
<path fill-rule="evenodd" clip-rule="evenodd" fill="#8C8C8C" d="M604,72c2.209,0,4,1.791,4,4s-1.791,4-4,4s-4-1.791-4-4
	S601.791,72,604,72z"/>
<path fill-rule="evenodd" clip-rule="evenodd" fill="#1F696E" d="M607.5,164c1.381,0,2.5,1.119,2.5,2.5s-1.119,2.5-2.5,2.5
	s-2.5-1.119-2.5-2.5S606.119,164,607.5,164z"/>
<path fill-rule="evenodd" clip-rule="evenodd" fill="#8C8C8C" d="M303,231c-1.104,0-2-0.896-2-2s0.896-2,2-2s2,0.896,2,2"/>
<path fill-rule="evenodd" clip-rule="evenodd" fill="#8C8C8C" d="M304,35c1.104,0,2,0.896,2,2c0,1.105-0.896,2-2,2s-2-0.895-2-2
	C302,35.896,302.896,35,304,35z"/>
<path fill-rule="evenodd" clip-rule="evenodd" fill="#8C8C8C" d="M497,60c1.104,0,2,0.896,2,2s-0.896,2-2,2s-2-0.896-2-2
	S495.896,60,497,60z"/>
<path fill-rule="evenodd" clip-rule="evenodd" fill="#8C8C8C" d="M947,194c1.656,0,3,1.344,3,3c0,1.657-1.344,3-3,3s-3-1.343-3-3
	C944,195.344,945.344,194,947,194z"/>
<path fill-rule="evenodd" clip-rule="evenodd" fill="#1F696E" d="M52,44c1.104,0,2,0.896,2,2s-0.896,2-2,2s-2-0.896-2-2
	S50.896,44,52,44z"/>
<circle fill-rule="evenodd" clip-rule="evenodd" fill="#1A232E" cx="411.001" cy="55" r="14.223"/>
<line fill-rule="evenodd" clip-rule="evenodd" fill="none" stroke="#1A232E" stroke-width="3" stroke-miterlimit="10" x1="415.941" y1="65.667" x2="408.311" y2="94.333"/>
<line fill-rule="evenodd" clip-rule="evenodd" fill="none" stroke="#1A232E" stroke-width="3" stroke-miterlimit="10" x1="410.001" y1="56.296" x2="382" y2="95.704"/>
<line fill-rule="evenodd" clip-rule="evenodd" fill="none" stroke="#1A232E" stroke-width="3" stroke-miterlimit="10" x1="402.001" y1="50.926" x2="373.334" y2="63.592"/>
</svg>
